<mxfile host="app.diagrams.net" modified="2023-12-20T10:38:43.775Z" agent="Mozilla/5.0 (X11; Linux x86_64) AppleWebKit/537.36 (KHTML, like Gecko) Chrome/120.0.0.0 Safari/537.36" etag="rcNsyZYp780NowAXg452" version="22.1.11" type="device">
  <diagram name="Страница — 1" id="2DIHkWNjgr37qrPzp6fN">
    <mxGraphModel dx="1269" dy="662" grid="1" gridSize="10" guides="1" tooltips="1" connect="1" arrows="1" fold="1" page="1" pageScale="1" pageWidth="827" pageHeight="1169" math="0" shadow="0">
      <root>
        <mxCell id="0" />
        <mxCell id="1" parent="0" />
        <mxCell id="fJBBlZFTeBX4GRZGi6Ru-26" style="edgeStyle=orthogonalEdgeStyle;rounded=0;orthogonalLoop=1;jettySize=auto;html=1;entryX=0.5;entryY=0;entryDx=0;entryDy=0;" parent="1" source="fJBBlZFTeBX4GRZGi6Ru-1" target="fJBBlZFTeBX4GRZGi6Ru-2" edge="1">
          <mxGeometry relative="1" as="geometry" />
        </mxCell>
        <mxCell id="fJBBlZFTeBX4GRZGi6Ru-1" value="queue_double&lt;br&gt;_all_even" style="ellipse;whiteSpace=wrap;html=1;" parent="1" vertex="1">
          <mxGeometry x="340" y="40" width="120" height="80" as="geometry" />
        </mxCell>
        <mxCell id="fJBBlZFTeBX4GRZGi6Ru-19" style="edgeStyle=orthogonalEdgeStyle;rounded=0;orthogonalLoop=1;jettySize=auto;html=1;entryX=0.5;entryY=0;entryDx=0;entryDy=0;" parent="1" source="fJBBlZFTeBX4GRZGi6Ru-2" target="fJBBlZFTeBX4GRZGi6Ru-3" edge="1">
          <mxGeometry relative="1" as="geometry" />
        </mxCell>
        <mxCell id="fJBBlZFTeBX4GRZGi6Ru-2" value="queue&lt;br&gt;current = queue-&amp;gt;head" style="rounded=0;whiteSpace=wrap;html=1;" parent="1" vertex="1">
          <mxGeometry x="340" y="150" width="120" height="60" as="geometry" />
        </mxCell>
        <mxCell id="fJBBlZFTeBX4GRZGi6Ru-24" style="edgeStyle=orthogonalEdgeStyle;rounded=0;orthogonalLoop=1;jettySize=auto;html=1;entryX=0.5;entryY=0;entryDx=0;entryDy=0;" parent="1" source="fJBBlZFTeBX4GRZGi6Ru-3" target="fJBBlZFTeBX4GRZGi6Ru-20" edge="1">
          <mxGeometry relative="1" as="geometry" />
        </mxCell>
        <mxCell id="fJBBlZFTeBX4GRZGi6Ru-25" style="edgeStyle=orthogonalEdgeStyle;rounded=0;orthogonalLoop=1;jettySize=auto;html=1;entryX=0.5;entryY=0;entryDx=0;entryDy=0;" parent="1" source="fJBBlZFTeBX4GRZGi6Ru-3" target="fJBBlZFTeBX4GRZGi6Ru-4" edge="1">
          <mxGeometry relative="1" as="geometry" />
        </mxCell>
        <mxCell id="fJBBlZFTeBX4GRZGi6Ru-3" value="current" style="rhombus;whiteSpace=wrap;html=1;" parent="1" vertex="1">
          <mxGeometry x="340" y="230" width="120" height="80" as="geometry" />
        </mxCell>
        <mxCell id="fJBBlZFTeBX4GRZGi6Ru-11" style="edgeStyle=orthogonalEdgeStyle;rounded=0;orthogonalLoop=1;jettySize=auto;html=1;entryX=0.5;entryY=0;entryDx=0;entryDy=0;" parent="1" source="fJBBlZFTeBX4GRZGi6Ru-4" target="fJBBlZFTeBX4GRZGi6Ru-10" edge="1">
          <mxGeometry relative="1" as="geometry" />
        </mxCell>
        <mxCell id="fJBBlZFTeBX4GRZGi6Ru-12" style="edgeStyle=orthogonalEdgeStyle;rounded=0;orthogonalLoop=1;jettySize=auto;html=1;entryX=0.5;entryY=0;entryDx=0;entryDy=0;" parent="1" source="fJBBlZFTeBX4GRZGi6Ru-4" target="fJBBlZFTeBX4GRZGi6Ru-6" edge="1">
          <mxGeometry relative="1" as="geometry" />
        </mxCell>
        <mxCell id="fJBBlZFTeBX4GRZGi6Ru-4" value="strlen(current-&amp;gt;c)%2==0" style="rhombus;whiteSpace=wrap;html=1;" parent="1" vertex="1">
          <mxGeometry x="480" y="340" width="130" height="80" as="geometry" />
        </mxCell>
        <mxCell id="fJBBlZFTeBX4GRZGi6Ru-13" style="edgeStyle=orthogonalEdgeStyle;rounded=0;orthogonalLoop=1;jettySize=auto;html=1;entryX=0.5;entryY=0;entryDx=0;entryDy=0;" parent="1" source="fJBBlZFTeBX4GRZGi6Ru-6" target="fJBBlZFTeBX4GRZGi6Ru-7" edge="1">
          <mxGeometry relative="1" as="geometry" />
        </mxCell>
        <mxCell id="fJBBlZFTeBX4GRZGi6Ru-6" value="new = calloc(1, sizeof(SString))" style="shape=process;whiteSpace=wrap;html=1;backgroundOutline=1;" parent="1" vertex="1">
          <mxGeometry x="640" y="460" width="120" height="60" as="geometry" />
        </mxCell>
        <mxCell id="fJBBlZFTeBX4GRZGi6Ru-14" style="edgeStyle=orthogonalEdgeStyle;rounded=0;orthogonalLoop=1;jettySize=auto;html=1;entryX=0.5;entryY=0;entryDx=0;entryDy=0;" parent="1" source="fJBBlZFTeBX4GRZGi6Ru-7" target="fJBBlZFTeBX4GRZGi6Ru-8" edge="1">
          <mxGeometry relative="1" as="geometry" />
        </mxCell>
        <mxCell id="fJBBlZFTeBX4GRZGi6Ru-7" value="new-&amp;gt;c = strdup(current-&amp;gt;c)&lt;br&gt;new-&amp;gt;next = current-&amp;gt;next" style="rounded=0;whiteSpace=wrap;html=1;" parent="1" vertex="1">
          <mxGeometry x="640" y="550" width="120" height="60" as="geometry" />
        </mxCell>
        <mxCell id="fJBBlZFTeBX4GRZGi6Ru-8" value="current = current-&amp;gt;next-&amp;gt;next" style="rounded=0;whiteSpace=wrap;html=1;" parent="1" vertex="1">
          <mxGeometry x="640" y="640" width="120" height="60" as="geometry" />
        </mxCell>
        <mxCell id="fJBBlZFTeBX4GRZGi6Ru-10" value="current = current-&amp;gt;next" style="rounded=0;whiteSpace=wrap;html=1;" parent="1" vertex="1">
          <mxGeometry x="340" y="460" width="120" height="60" as="geometry" />
        </mxCell>
        <mxCell id="fJBBlZFTeBX4GRZGi6Ru-15" value="" style="endArrow=none;html=1;rounded=0;entryX=0.5;entryY=1;entryDx=0;entryDy=0;" parent="1" target="fJBBlZFTeBX4GRZGi6Ru-8" edge="1">
          <mxGeometry width="50" height="50" relative="1" as="geometry">
            <mxPoint x="700" y="720" as="sourcePoint" />
            <mxPoint x="440" y="440" as="targetPoint" />
          </mxGeometry>
        </mxCell>
        <mxCell id="fJBBlZFTeBX4GRZGi6Ru-16" value="" style="endArrow=none;html=1;rounded=0;" parent="1" edge="1">
          <mxGeometry width="50" height="50" relative="1" as="geometry">
            <mxPoint x="700" y="720" as="sourcePoint" />
            <mxPoint x="800" y="720" as="targetPoint" />
          </mxGeometry>
        </mxCell>
        <mxCell id="fJBBlZFTeBX4GRZGi6Ru-17" value="" style="endArrow=none;html=1;rounded=0;" parent="1" edge="1">
          <mxGeometry width="50" height="50" relative="1" as="geometry">
            <mxPoint x="800" y="220" as="sourcePoint" />
            <mxPoint x="800" y="720" as="targetPoint" />
          </mxGeometry>
        </mxCell>
        <mxCell id="fJBBlZFTeBX4GRZGi6Ru-18" value="" style="endArrow=classic;html=1;rounded=0;" parent="1" edge="1">
          <mxGeometry width="50" height="50" relative="1" as="geometry">
            <mxPoint x="800" y="220" as="sourcePoint" />
            <mxPoint x="400" y="220" as="targetPoint" />
          </mxGeometry>
        </mxCell>
        <mxCell id="fJBBlZFTeBX4GRZGi6Ru-20" value="end" style="ellipse;whiteSpace=wrap;html=1;" parent="1" vertex="1">
          <mxGeometry x="180" y="340" width="120" height="80" as="geometry" />
        </mxCell>
        <mxCell id="fJBBlZFTeBX4GRZGi6Ru-22" value="" style="endArrow=none;html=1;rounded=0;exitX=0.5;exitY=1;exitDx=0;exitDy=0;" parent="1" source="fJBBlZFTeBX4GRZGi6Ru-10" edge="1">
          <mxGeometry width="50" height="50" relative="1" as="geometry">
            <mxPoint x="530" y="530" as="sourcePoint" />
            <mxPoint x="400" y="720" as="targetPoint" />
          </mxGeometry>
        </mxCell>
        <mxCell id="fJBBlZFTeBX4GRZGi6Ru-23" value="" style="endArrow=classic;html=1;rounded=0;" parent="1" edge="1">
          <mxGeometry width="50" height="50" relative="1" as="geometry">
            <mxPoint x="400" y="720" as="sourcePoint" />
            <mxPoint x="700" y="720" as="targetPoint" />
          </mxGeometry>
        </mxCell>
        <mxCell id="fJBBlZFTeBX4GRZGi6Ru-27" value="1" style="text;html=1;strokeColor=none;fillColor=none;align=center;verticalAlign=middle;whiteSpace=wrap;rounded=0;" parent="1" vertex="1">
          <mxGeometry x="210" y="10" width="60" height="30" as="geometry" />
        </mxCell>
        <mxCell id="fJBBlZFTeBX4GRZGi6Ru-28" value="2" style="text;html=1;strokeColor=none;fillColor=none;align=center;verticalAlign=middle;whiteSpace=wrap;rounded=0;" parent="1" vertex="1">
          <mxGeometry x="370" y="10" width="60" height="30" as="geometry" />
        </mxCell>
        <mxCell id="fJBBlZFTeBX4GRZGi6Ru-29" value="3" style="text;html=1;strokeColor=none;fillColor=none;align=center;verticalAlign=middle;whiteSpace=wrap;rounded=0;" parent="1" vertex="1">
          <mxGeometry x="515" y="10" width="60" height="30" as="geometry" />
        </mxCell>
        <mxCell id="fJBBlZFTeBX4GRZGi6Ru-30" value="4" style="text;html=1;strokeColor=none;fillColor=none;align=center;verticalAlign=middle;whiteSpace=wrap;rounded=0;" parent="1" vertex="1">
          <mxGeometry x="670" y="10" width="60" height="30" as="geometry" />
        </mxCell>
        <mxCell id="fJBBlZFTeBX4GRZGi6Ru-31" value="A" style="text;html=1;strokeColor=none;fillColor=none;align=center;verticalAlign=middle;whiteSpace=wrap;rounded=0;" parent="1" vertex="1">
          <mxGeometry x="100" y="65" width="60" height="30" as="geometry" />
        </mxCell>
        <mxCell id="fJBBlZFTeBX4GRZGi6Ru-32" value="B" style="text;html=1;strokeColor=none;fillColor=none;align=center;verticalAlign=middle;whiteSpace=wrap;rounded=0;" parent="1" vertex="1">
          <mxGeometry x="100" y="165" width="60" height="30" as="geometry" />
        </mxCell>
        <mxCell id="fJBBlZFTeBX4GRZGi6Ru-33" value="C" style="text;html=1;strokeColor=none;fillColor=none;align=center;verticalAlign=middle;whiteSpace=wrap;rounded=0;" parent="1" vertex="1">
          <mxGeometry x="100" y="255" width="60" height="30" as="geometry" />
        </mxCell>
        <mxCell id="8El8D1hPVIOGutHWHV8_-1" value="D" style="text;html=1;strokeColor=none;fillColor=none;align=center;verticalAlign=middle;whiteSpace=wrap;rounded=0;" vertex="1" parent="1">
          <mxGeometry x="100" y="365" width="60" height="30" as="geometry" />
        </mxCell>
        <mxCell id="8El8D1hPVIOGutHWHV8_-2" value="E" style="text;html=1;strokeColor=none;fillColor=none;align=center;verticalAlign=middle;whiteSpace=wrap;rounded=0;" vertex="1" parent="1">
          <mxGeometry x="100" y="475" width="60" height="30" as="geometry" />
        </mxCell>
        <mxCell id="8El8D1hPVIOGutHWHV8_-3" value="F" style="text;html=1;strokeColor=none;fillColor=none;align=center;verticalAlign=middle;whiteSpace=wrap;rounded=0;" vertex="1" parent="1">
          <mxGeometry x="100" y="565" width="60" height="30" as="geometry" />
        </mxCell>
        <mxCell id="8El8D1hPVIOGutHWHV8_-4" value="G" style="text;html=1;strokeColor=none;fillColor=none;align=center;verticalAlign=middle;whiteSpace=wrap;rounded=0;" vertex="1" parent="1">
          <mxGeometry x="100" y="655" width="60" height="30" as="geometry" />
        </mxCell>
      </root>
    </mxGraphModel>
  </diagram>
</mxfile>
